<svg width="114" height="114" viewBox="0 0 114 114" fill="none" xmlns="http://www.w3.org/2000/svg">
<path d="M103.241 20H11.6339C9.60928 20 7.66756 20.7882 6.23593 22.1912C4.80429 23.5942 4 25.4971 4 27.4812V87.3312C4 89.3154 4.80429 91.2183 6.23593 92.6213C7.66756 94.0243 9.60928 94.8125 11.6339 94.8125H103.241C105.266 94.8125 107.207 94.0243 108.639 92.6213C110.071 91.2183 110.875 89.3154 110.875 87.3312V27.4812C110.875 25.4971 110.071 23.5942 108.639 22.1912C107.207 20.7882 105.266 20 103.241 20V20ZM94.8437 27.4812L57.4375 52.8427L20.0312 27.4812H94.8437ZM11.6339 87.3312V30.8852L55.2618 60.4736C55.9008 60.9079 56.6599 61.1407 57.4375 61.1407C58.2151 61.1407 58.9742 60.9079 59.6132 60.4736L103.241 30.8852V87.3312H11.6339Z" fill="white"/>
</svg>
