<svg width="113" height="114" viewBox="0 0 113 114" fill="none" xmlns="http://www.w3.org/2000/svg">
<g clip-path="url(#clip0)">
<path fill-rule="evenodd" clip-rule="evenodd" d="M56.5 0.5C25.2838 0.5 0 25.7838 0 57C0 82.0013 16.1731 103.118 38.6319 110.604C41.4569 111.099 42.5163 109.404 42.5163 107.921C42.5163 106.579 42.4456 102.129 42.4456 97.3975C28.25 100.011 24.5775 93.9369 23.4475 90.7588C22.8119 89.1344 20.0575 84.12 17.6563 82.7781C15.6788 81.7188 12.8537 79.1056 17.5856 79.035C22.035 78.9644 25.2131 83.1313 26.2725 84.8263C31.3575 93.3719 39.4794 90.9706 42.7281 89.4875C43.2225 85.815 44.7056 83.3431 46.33 81.9306C33.7588 80.5181 20.6225 75.645 20.6225 54.0338C20.6225 47.8894 22.8119 42.8044 26.4138 38.8494C25.8488 37.4369 23.8713 31.6456 26.9788 23.8769C26.9788 23.8769 31.7106 22.3938 42.5163 29.6681C47.0363 28.3969 51.8388 27.7613 56.6413 27.7613C61.4438 27.7613 66.2463 28.3969 70.7663 29.6681C81.5719 22.3231 86.3038 23.8769 86.3038 23.8769C89.4113 31.6456 87.4338 37.4369 86.8688 38.8494C90.4706 42.8044 92.66 47.8188 92.66 54.0338C92.66 75.7156 79.4531 80.5181 66.8819 81.9306C68.93 83.6963 70.6956 87.0863 70.6956 92.3831C70.6956 99.94 70.625 106.014 70.625 107.921C70.625 109.404 71.6844 111.169 74.5094 110.604C85.7255 106.818 95.4717 99.6089 102.376 89.993C109.281 80.3771 112.997 68.8381 113 57C113 25.7838 87.7163 0.5 56.5 0.5Z" fill="white"/>
</g>
<defs>
<clipPath id="clip0">
<rect width="113" height="113" fill="white" transform="translate(0 0.5)"/>
</clipPath>
</defs>
</svg>
