<svg width="113" height="114" viewBox="0 0 113 114" fill="none" xmlns="http://www.w3.org/2000/svg">
<g clip-path="url(#clip0)">
<path d="M14.7324 6.3662C9.80275 9.31595 0.0953438 20.5592 0 23.5089V28.4074C0 34.5883 5.73828 40.0461 10.9433 40.0461C17.1972 40.0461 22.4234 34.8128 22.4234 28.5998C22.4234 34.8128 27.4413 40.0461 33.7128 40.0461C39.9667 40.0461 44.8398 34.8128 44.8398 28.5998C44.8398 34.8128 50.1932 40.0461 56.447 40.0461H56.56C62.8315 40.0461 68.1814 34.8128 68.1814 28.5998C68.1814 34.8128 73.058 40.0461 79.3119 40.0461C85.5657 40.0461 90.6013 34.8128 90.6013 28.5998C90.6013 34.8128 95.8099 40.0461 102.06 40.0461C107.283 40.0461 113.021 34.5883 113.021 28.4074V23.5089C112.908 20.5592 103.218 9.31595 98.2712 6.3662C82.9491 5.81045 72.3377 5.71426 56.5212 5.71426C40.6871 5.73208 19.1147 5.97433 14.7536 6.3662H14.7324ZM44.7657 37.1248C44.1636 38.1696 43.4208 39.1252 42.5586 39.9641V39.9819C40.1024 42.3953 36.8095 43.7463 33.3809 43.7475C29.9467 43.7539 26.6486 42.3931 24.2032 39.9606C23.3656 39.1349 22.6518 38.1904 22.0844 37.1569C21.4947 38.2149 20.6719 39.1234 19.8068 39.9606C17.3575 42.3872 14.0619 43.747 10.6291 43.7475H10.6114C10.1892 43.7303 9.77268 43.6424 9.379 43.4874C8.9497 48.1516 8.68587 52.8298 8.588 57.513V57.5308C8.57034 59.4083 8.57034 60.9259 8.54916 63.0598C8.66216 74.157 7.46506 99.0019 13.4082 105.108C22.6035 107.26 39.5253 108.243 56.4788 108.261H56.4965C73.4712 108.243 90.3717 107.26 99.5671 105.108C105.51 99.0054 104.313 74.157 104.426 63.0598C104.408 60.9259 104.408 59.4083 104.387 57.5308V57.513C104.298 52.8295 104.034 48.151 103.596 43.4874C103.203 43.6442 102.786 43.7321 102.364 43.7475H102.346C98.9133 43.747 95.6178 42.3872 93.1685 39.9606H93.1862C92.321 39.1234 91.4947 38.2185 90.9085 37.1569H90.8908C90.3289 38.1892 89.6211 39.1337 88.7897 39.9606C86.3402 42.3865 83.0447 43.7457 79.612 43.7457C76.1794 43.7457 72.8839 42.3865 70.4343 39.9606C69.5854 39.1318 68.8545 38.1883 68.2626 37.1569L68.2237 37.0999C67.6164 38.1971 66.8819 39.1412 66.052 39.9606C63.6027 42.3872 60.3072 43.747 56.8743 43.7475H56.8567C56.7472 43.7475 56.6165 43.7475 56.4894 43.7297C56.3623 43.7475 56.2316 43.7475 56.1045 43.7475H56.0868C52.6594 43.751 49.369 42.3902 46.9303 39.9606C46.0817 39.1369 45.3572 38.1923 44.7798 37.1569L44.7409 37.0999L44.7657 37.1248ZM35.3302 49.4297C39.0627 49.4475 42.375 49.4297 46.4924 53.9576C49.7271 53.6263 53.1135 53.4589 56.4965 53.4589C59.8794 53.4589 63.2659 53.6263 66.5005 53.9576C70.6215 49.4297 73.9302 49.4297 77.6628 49.4297H77.6804C79.4461 49.4297 86.5086 49.4297 91.4205 63.3662L96.6998 82.4933C100.616 96.7254 95.4462 97.0817 89.0122 97.0817C79.4496 96.7254 74.1527 89.7144 74.1527 82.6999C68.8558 83.5941 62.6726 84.0216 56.4965 84.0216C50.3203 84.0216 44.1371 83.5941 38.8579 82.6999C38.8579 89.7144 33.561 96.7254 23.9984 97.0817C17.5433 97.0639 12.3735 96.7254 16.2897 82.4933L21.5689 63.3662C26.4985 49.4297 33.561 49.4297 35.3266 49.4297H35.3302ZM56.5 60.3951C56.4823 60.3951 46.4395 69.7288 44.6209 73.0313L51.2031 72.7712V78.5603C51.2031 78.8417 53.8551 78.7277 56.5 78.5994C59.1449 78.7277 61.7792 78.8417 61.7792 78.5603V72.7712L68.3791 73.0313C66.5605 69.7288 56.5 60.3951 56.5 60.3951Z" fill="white"/>
</g>
<defs>
<clipPath id="clip0">
<rect width="113" height="114" fill="white"/>
</clipPath>
</defs>
</svg>
