<svg width="113" height="114" viewBox="0 0 113 114" fill="none" xmlns="http://www.w3.org/2000/svg">
<g clip-path="url(#clip0)">
<path d="M110.646 30.9082C110.006 28.6056 108.76 26.5209 107.04 24.8757C105.271 23.18 103.103 21.967 100.74 21.3512C91.8977 19 56.4722 19 56.4722 19C41.7036 18.8305 26.9388 19.576 12.2608 21.2325C9.89815 21.8938 7.73407 23.1339 5.96109 24.8425C4.219 26.5335 2.95716 28.6187 2.298 30.9035C0.714549 39.5093 -0.054798 48.2474 0.000327173 57C-0.0561729 65.7447 0.711286 74.48 2.298 83.0965C2.94304 85.3717 4.20017 87.4475 5.94696 89.1242C7.69375 90.801 9.86901 92.0122 12.2608 92.6535C21.2208 95 56.4722 95 56.4722 95C71.2595 95.1697 86.0432 94.4242 100.74 92.7675C103.103 92.1517 105.271 90.9387 107.04 89.243C108.782 87.5662 110.02 85.481 110.642 83.2105C112.266 74.608 113.056 65.8663 113 57.1092C113.123 48.3151 112.334 39.5322 110.646 30.9035V30.9082ZM45.2098 73.264V40.7407L74.684 57.0047L45.2098 73.264Z" fill="white"/>
</g>
<defs>
<clipPath id="clip0">
<rect width="113" height="114" fill="white"/>
</clipPath>
</defs>
</svg>
