<svg width="113" height="114" viewBox="0 0 113 114" fill="none" xmlns="http://www.w3.org/2000/svg">
<path fill-rule="evenodd" clip-rule="evenodd" d="M35.1477 5.0635C40.6706 4.807 42.4315 4.75 56.5 4.75C70.5685 4.75 72.3294 4.81175 77.8476 5.0635C83.3657 5.31525 87.1324 6.2035 90.4282 7.49075C93.8794 8.8065 97.0105 10.8632 99.6001 13.5232C102.237 16.131 104.271 19.285 105.57 22.7715C106.851 26.0965 107.727 29.8965 107.981 35.454C108.235 41.0353 108.292 42.8118 108.292 57C108.292 71.193 108.23 72.9695 107.981 78.5412C107.731 84.0987 106.851 87.8987 105.57 91.2237C104.271 94.7107 102.233 97.8699 99.6001 100.481C97.0105 103.141 93.8794 105.194 90.4282 106.505C87.1324 107.797 83.3657 108.68 77.857 108.937C72.3294 109.193 70.5685 109.25 56.5 109.25C42.4315 109.25 40.6706 109.188 35.1477 108.937C29.639 108.685 25.8723 107.797 22.5765 106.505C19.1202 105.193 15.9887 103.138 13.3999 100.481C10.765 97.8722 8.72602 94.7145 7.42504 91.2285C6.14908 87.9035 5.27333 84.1035 5.01908 78.546C4.76483 72.9647 4.70833 71.1882 4.70833 57C4.70833 42.807 4.76954 41.0305 5.01908 35.4635C5.26863 29.8965 6.14908 26.0965 7.42504 22.7715C8.72795 19.2854 10.7685 16.1277 13.4046 13.5185C15.9897 10.8609 19.1181 8.80386 22.5718 7.49075C25.8676 6.2035 29.6343 5.32 35.143 5.0635H35.1477ZM77.4285 14.4685C71.9669 14.2168 70.3284 14.1645 56.5 14.1645C42.6716 14.1645 41.0331 14.2168 35.5715 14.4685C30.5194 14.7013 27.7792 15.5515 25.9523 16.2687C23.537 17.2187 21.809 18.3445 19.9963 20.1733C18.278 21.8597 16.9556 23.9128 16.126 26.182C15.4151 28.025 14.5723 30.7895 14.3416 35.8862C14.092 41.3962 14.0403 43.0492 14.0403 57C14.0403 70.9508 14.092 72.6037 14.3416 78.1137C14.5723 83.2105 15.4151 85.975 16.126 87.818C16.9547 90.0838 18.2778 92.1405 19.9963 93.8268C21.6678 95.5605 23.7065 96.8953 25.9523 97.7313C27.7792 98.4485 30.5194 99.2988 35.5715 99.5315C41.0331 99.7833 42.6669 99.8355 56.5 99.8355C70.3331 99.8355 71.9669 99.7833 77.4285 99.5315C82.4806 99.2988 85.2208 98.4485 87.0477 97.7313C89.463 96.7813 91.191 95.6555 93.0037 93.8268C94.7222 92.1405 96.0453 90.0838 96.874 87.818C97.5849 85.975 98.4277 83.2105 98.6584 78.1137C98.908 72.6037 98.9597 70.9508 98.9597 57C98.9597 43.0492 98.908 41.3962 98.6584 35.8862C98.4277 30.7895 97.5849 28.025 96.874 26.182C95.9323 23.7453 94.8164 22.002 93.0037 20.1733C91.3319 18.4398 89.2968 17.1058 87.0477 16.2687C85.2208 15.5515 82.4806 14.7013 77.4285 14.4685V14.4685ZM49.8848 73.1072C53.5792 74.6587 57.693 74.8681 61.5235 73.6997C65.3539 72.5312 68.6635 70.0574 70.8868 66.7007C73.1102 63.344 74.1094 59.3126 73.7139 55.2952C73.3183 51.2779 71.5526 47.5236 68.7181 44.6737C66.9112 42.852 64.7265 41.4571 62.3211 40.5894C59.9157 39.7218 57.3495 39.403 54.8073 39.6559C52.2651 39.9089 49.8102 40.7273 47.6192 42.0524C45.4281 43.3774 43.5556 45.176 42.1363 47.3188C40.717 49.4616 39.7863 51.8951 39.4112 54.4443C39.036 56.9935 39.2258 59.5949 39.9669 62.0612C40.7079 64.5275 41.9818 66.7974 43.6967 68.7074C45.4117 70.6175 47.5251 72.1201 49.8848 73.1072ZM37.6761 38.0095C40.1481 35.5156 43.0828 33.5374 46.3126 32.1877C49.5424 30.838 53.0041 30.1434 56.5 30.1434C59.9959 30.1434 63.4576 30.838 66.6874 32.1877C69.9172 33.5374 72.8519 35.5156 75.3239 38.0095C77.7959 40.5034 79.7568 43.464 81.0946 46.7224C82.4325 49.9808 83.121 53.4731 83.121 57C83.121 60.5269 82.4325 64.0192 81.0946 67.2776C79.7568 70.536 77.7959 73.4966 75.3239 75.9905C70.3315 81.0271 63.5603 83.8566 56.5 83.8566C49.4397 83.8566 42.6685 81.0271 37.6761 75.9905C32.6837 70.9539 29.879 64.1228 29.879 57C29.879 49.8772 32.6837 43.0461 37.6761 38.0095V38.0095ZM89.0252 34.143C89.6377 33.56 90.1281 32.859 90.4673 32.0814C90.8065 31.3038 90.9876 30.4654 90.9999 29.6159C91.0122 28.7664 90.8554 27.9231 90.5388 27.1358C90.2222 26.3486 89.7523 25.6334 89.1568 25.0327C88.5613 24.4319 87.8524 23.9578 87.0721 23.6385C86.2918 23.3191 85.4558 23.1609 84.6138 23.1733C83.7717 23.1857 82.9407 23.3684 82.17 23.7106C81.3992 24.0528 80.7043 24.5475 80.1264 25.1655C79.0026 26.3674 78.3873 27.9638 78.4112 29.6159C78.435 31.268 79.0962 32.8457 80.2543 34.014C81.4124 35.1823 82.9762 35.8493 84.6138 35.8734C86.2514 35.8975 87.8338 35.2768 89.0252 34.143V34.143Z" fill="white"/>
</svg>
