<svg width="113" height="114" viewBox="0 0 113 114" fill="none" xmlns="http://www.w3.org/2000/svg">
<path d="M111.319 23.4507C107.388 25.2082 103.164 26.3958 98.7243 26.9325C103.306 24.167 106.733 19.8145 108.367 14.687C104.063 17.2662 99.3522 19.0817 94.4398 20.0545C91.1363 16.4961 86.7608 14.1375 81.9925 13.345C77.2242 12.5525 72.3299 13.3703 68.0695 15.6715C63.8091 17.9726 60.421 21.6285 58.4311 26.0713C56.4413 30.5142 55.9611 35.4956 57.065 40.242C48.3437 39.8002 39.8119 37.5134 32.0234 33.5298C24.2348 29.5462 17.3636 23.955 11.8556 17.119C9.97225 20.3965 8.88934 24.1965 8.88934 28.2435C8.88724 31.8867 9.77654 35.4742 11.4783 38.6875C13.1802 41.9008 15.6418 44.6407 18.645 46.664C15.1621 46.5522 11.7561 45.6028 8.71042 43.8948V44.1797C8.71007 49.2895 10.4621 54.242 13.6692 58.197C16.8762 62.1519 21.3409 64.8657 26.3055 65.8778C23.0745 66.7599 19.6871 66.8898 16.3991 66.2578C17.7998 70.6544 20.5283 74.4991 24.2026 77.2537C27.8768 80.0082 32.3129 81.5346 36.8898 81.6193C29.1203 87.7725 19.5249 91.1102 9.64738 91.0955C7.89767 91.096 6.14945 90.9929 4.41171 90.7868C14.438 97.2903 26.1093 100.742 38.0292 100.729C78.3796 100.729 100.438 67.013 100.438 37.772C100.438 36.822 100.415 35.8625 100.372 34.9125C104.663 31.7821 108.367 27.9058 111.31 23.465L111.319 23.4507V23.4507Z" fill="#FCFBFB"/>
</svg>
